<svg width="64" height="64" viewBox="0 0 64 64" fill="none" xmlns="http://www.w3.org/2000/svg">
<path d="M25.1851 31.7791L25.1759 31.7783L25.1442 31.7752C25.1173 31.7725 25.0789 31.7685 25.0297 31.763C24.9315 31.7519 24.7902 31.7347 24.6124 31.7095C24.257 31.6591 23.754 31.5769 23.1545 31.4483C22.0395 31.209 20.5728 30.8056 19.0953 30.1387C17.5019 30.7105 15.7628 30.9548 13.9682 30.7978C7.32278 30.2164 2.40689 24.3578 2.98829 17.7124C3.5697 11.0669 9.42823 6.15101 16.0737 6.73241C22.7192 7.31381 27.6351 13.1723 27.0536 19.8178C26.8857 21.7374 26.2767 23.5147 25.3345 25.0567C24.5126 26.4019 24.6316 27.7176 24.982 28.7477C25.1581 29.2656 25.3899 29.6988 25.5784 30.0027C25.6721 30.1537 25.7536 30.2703 25.8097 30.3467C25.8377 30.3849 25.8592 30.4128 25.8726 30.4298L25.8862 30.447C26.0964 30.6996 26.1346 31.0543 25.9823 31.3456C25.83 31.637 25.517 31.8082 25.1894 31.7795L25.1851 31.7791Z" fill="#148DEA"/>
<path fill-rule="evenodd" clip-rule="evenodd" d="M13.7392 13.873C13.7392 13.1724 14.3072 12.6045 15.0078 12.6046C15.7084 12.6046 16.2763 13.1726 16.2763 13.8732C16.2762 14.5738 15.7083 15.1417 15.0077 15.1417C14.3071 15.1416 13.7391 14.5736 13.7392 13.873Z" fill="black"/>
<path fill-rule="evenodd" clip-rule="evenodd" d="M15.0078 17.4843C15.5601 17.4844 16.0078 17.9321 16.0078 18.4844L16.0073 24.1699C16.0073 24.7222 15.5596 25.1699 15.0073 25.1698C14.455 25.1698 14.0073 24.7221 14.0073 24.1698L14.0078 18.4843C14.0078 17.932 14.4555 17.4843 15.0078 17.4843Z" fill="black"/>
<path d="M55.5799 39.3919L56.7665 32.6623C56.9583 31.5746 56.232 30.5372 55.1442 30.3454L49.688 29.3834C44.8875 28.5369 40.4585 26.2487 36.9904 22.8232L32.8257 18.7098L28.3108 44.3148L33.6312 41.8738C38.0618 39.841 43.0063 39.2056 47.8068 40.0521L53.263 41.0142C54.3508 41.206 55.3881 40.4797 55.5799 39.3919Z" stroke="black" stroke-width="2" stroke-linecap="round" stroke-linejoin="round"/>
<path d="M46.2085 29.1934L44.2984 40.0262" stroke="black" stroke-width="2" stroke-linecap="round" stroke-linejoin="round"/>
<path d="M50.6685 26.9331L50.3212 28.9027" stroke="black" stroke-width="2" stroke-linecap="round" stroke-linejoin="round"/>
<path d="M59.4746 34.5786L58.78 38.5178" stroke="black" stroke-width="2" stroke-linecap="round" stroke-linejoin="round"/>
<path d="M48.2974 51.9008L50.2075 41.0679L44.2987 40.026L43.0831 46.9196C42.6995 49.0952 44.1522 51.1698 46.3278 51.5535L48.2974 51.9008Z" stroke="black" stroke-width="2" stroke-linecap="round" stroke-linejoin="round"/>
</svg>
