<svg width="64" height="64" viewBox="0 0 64 64" fill="none" xmlns="http://www.w3.org/2000/svg">
<path d="M43.7717 26.0274L56 21.3333L32.7249 12.2819C32.2586 12.1006 31.7414 12.1006 31.2751 12.2819L8 21.3333L30.453 30.2867C31.154 30.5662 31.9347 30.5712 32.6393 30.3008L35.3972 29.2421" stroke="white" stroke-width="2" stroke-linecap="round" stroke-linejoin="round"/>
<path d="M31.7441 21.1324L40.0765 27.3817C40.5801 27.7594 40.8765 28.3522 40.8765 28.9817L40.8765 39.5982" stroke="#148DEA" stroke-width="3" stroke-linecap="round" stroke-linejoin="round"/>
<path d="M16.9033 40.8969L17.5541 40.1377L17.5541 40.1377L16.9033 40.8969ZM47.4986 40.8969L46.8479 40.1377L46.8478 40.1377L47.4986 40.8969ZM35.5328 47.3292C36.08 47.2543 36.4629 46.7501 36.3881 46.2029C36.3133 45.6557 35.809 45.2728 35.2618 45.3476L35.5328 47.3292ZM46.4745 40.4508C46.0476 40.8012 45.9855 41.4313 46.3359 41.8583C46.6863 42.2852 47.3164 42.3472 47.7433 41.9968L46.4745 40.4508ZM47.1827 24.3289V39.4096H49.1827V24.3289H47.1827ZM17.2192 39.4096V24.3289H15.2192V39.4096H17.2192ZM15.2192 39.4096C15.2192 40.2734 15.5967 41.094 16.2525 41.6562L17.5541 40.1377C17.3416 39.9555 17.2192 39.6896 17.2192 39.4096H15.2192ZM47.1827 39.4096C47.1827 39.6896 47.0604 39.9555 46.8479 40.1377L48.1494 41.6562C48.8053 41.094 49.1827 40.2734 49.1827 39.4096H47.1827ZM35.2618 45.3476C29.0672 46.1948 22.5941 44.4577 17.5541 40.1377L16.2525 41.6562C21.7411 46.3607 28.7912 48.2512 35.5328 47.3292L35.2618 45.3476ZM46.8478 40.1377C46.7242 40.2436 46.5998 40.348 46.4745 40.4508L47.7433 41.9968C47.8796 41.885 48.015 41.7714 48.1494 41.6562L46.8478 40.1377Z" fill="white"/>
<path fill-rule="evenodd" clip-rule="evenodd" d="M33.5706 20.6757C33.5706 21.9366 32.5484 22.9588 31.2875 22.9588C30.0266 22.9588 29.0044 21.9366 29.0044 20.6757C29.0044 19.4148 30.0266 18.3926 31.2875 18.3926C32.5484 18.3926 33.5706 19.4148 33.5706 20.6757ZM42.7866 44.5591C44.1473 43.8636 45.0789 42.448 45.0789 40.8149C45.0789 38.494 43.1974 36.6126 40.8766 36.6126C38.5557 36.6126 36.6742 38.494 36.6742 40.8149C36.6742 42.2494 37.393 43.516 38.49 44.2743L37.5102 49.9897C37.481 50.1603 37.5549 50.3321 37.6989 50.4281C39.4641 51.6048 41.7637 51.6048 43.5288 50.4281C43.6728 50.3321 43.7468 50.1603 43.7176 49.9897L42.7866 44.5591Z" fill="#148DEA"/>
<path d="M42.978 40.8151C42.978 41.9755 42.0373 42.9163 40.8769 42.9163" stroke="white" stroke-width="2" stroke-linecap="round"/>
</svg>
