<svg width="64" height="64" viewBox="0 0 64 64" fill="none" xmlns="http://www.w3.org/2000/svg">
<path d="M43.7717 26.0274L56 21.3333L32.7249 12.2819C32.2586 12.1006 31.7414 12.1006 31.2751 12.2819L8 21.3333L30.453 30.2867C31.154 30.5662 31.9347 30.5712 32.6393 30.3008L35.3972 29.2421" stroke="black" stroke-width="2" stroke-linecap="round" stroke-linejoin="round"/>
<path d="M31.7441 21.1324L40.0765 27.3817C40.5801 27.7594 40.8765 28.3522 40.8765 28.9817L40.8765 39.5982" stroke="#148DEA" stroke-width="3" stroke-linecap="round" stroke-linejoin="round"/>
<path d="M16.9033 40.8967L17.5541 40.1374L17.5541 40.1374L16.9033 40.8967ZM47.4986 40.8967L46.8479 40.1374L46.8478 40.1374L47.4986 40.8967ZM35.5328 47.3289C36.08 47.2541 36.4629 46.7498 36.3881 46.2027C36.3133 45.6555 35.809 45.2725 35.2618 45.3474L35.5328 47.3289ZM46.4745 40.4506C46.0476 40.801 45.9855 41.4311 46.3359 41.858C46.6863 42.2849 47.3164 42.347 47.7433 41.9966L46.4745 40.4506ZM47.1827 24.3286V39.4094H49.1827V24.3286H47.1827ZM17.2192 39.4094V24.3286H15.2192V39.4094H17.2192ZM15.2192 39.4094C15.2192 40.2732 15.5967 41.0938 16.2525 41.6559L17.5541 40.1374C17.3416 39.9552 17.2192 39.6893 17.2192 39.4094H15.2192ZM47.1827 39.4094C47.1827 39.6893 47.0604 39.9552 46.8479 40.1374L48.1494 41.6559C48.8053 41.0938 49.1827 40.2732 49.1827 39.4094H47.1827ZM35.2618 45.3474C29.0672 46.1946 22.5941 44.4575 17.5541 40.1374L16.2525 41.6559C21.7411 46.3604 28.7912 48.2509 35.5328 47.3289L35.2618 45.3474ZM46.8478 40.1374C46.7242 40.2434 46.5998 40.3478 46.4745 40.4506L47.7433 41.9966C47.8796 41.8847 48.015 41.7712 48.1494 41.6559L46.8478 40.1374Z" fill="black"/>
<path fill-rule="evenodd" clip-rule="evenodd" d="M33.5706 20.6757C33.5706 21.9366 32.5484 22.9588 31.2875 22.9588C30.0266 22.9588 29.0044 21.9366 29.0044 20.6757C29.0044 19.4148 30.0266 18.3926 31.2875 18.3926C32.5484 18.3926 33.5706 19.4148 33.5706 20.6757ZM42.7866 44.5591C44.1473 43.8636 45.0789 42.448 45.0789 40.8149C45.0789 38.494 43.1974 36.6126 40.8766 36.6126C38.5557 36.6126 36.6742 38.494 36.6742 40.8149C36.6742 42.2494 37.393 43.516 38.49 44.2743L37.5102 49.9897C37.481 50.1603 37.5549 50.3321 37.6989 50.4281C39.4641 51.6048 41.7637 51.6048 43.5288 50.4281C43.6728 50.3321 43.7468 50.1603 43.7176 49.9897L42.7866 44.5591Z" fill="#148DEA"/>
<path d="M42.978 40.8148C42.978 41.9753 42.0373 42.916 40.8769 42.916" stroke="black" stroke-width="2" stroke-linecap="round"/>
</svg>
