<svg width="64" height="64" viewBox="0 0 64 64" fill="none" xmlns="http://www.w3.org/2000/svg">
<path fill-rule="evenodd" clip-rule="evenodd" d="M21.4814 10.9606L23.8258 13.7547C23.9963 13.9578 24.0791 14.2204 24.056 14.4846L23.7769 17.6745C23.7288 18.2247 23.2438 18.6317 22.6936 18.5835L19.5037 18.3044C19.2395 18.2813 18.9953 18.1542 18.8248 17.951L16.4803 15.157C16.3286 15.7418 16.2751 16.3513 16.3256 16.9604C16.4179 18.0741 16.8531 19.1319 17.5715 19.9879C18.2898 20.844 19.2559 21.4564 20.3367 21.7406C21.4175 22.0249 22.5598 21.9671 23.6064 21.5752C24.0032 21.4266 24.4507 21.5443 24.7231 21.8689L29.0692 27.0484C29.4242 27.4715 29.369 28.1022 28.946 28.4572C28.5229 28.8122 27.8921 28.757 27.5371 28.334L23.6216 23.6677C22.3832 23.9984 21.0756 24.003 19.828 23.6748C18.3472 23.2854 17.0236 22.4464 16.0394 21.2735C15.0552 20.1006 14.4588 18.6514 14.3324 17.1255C14.206 15.5996 14.5558 14.072 15.3335 12.7532C15.4984 12.4735 15.7888 12.2914 16.1124 12.2645C16.4359 12.2377 16.7523 12.3697 16.961 12.6183L20.0906 16.3482L21.8717 16.504L22.0275 14.7229L18.8978 10.9931C18.6892 10.7444 18.6142 10.4099 18.6968 10.096C18.7793 9.78202 19.0092 9.52768 19.3132 9.41384C20.7471 8.87691 22.3122 8.79772 23.793 9.18717C25.2737 9.57663 26.5973 10.4156 27.5815 11.5885C28.5657 12.7614 29.1621 14.2106 29.2885 15.7365C29.395 17.0222 29.1635 18.3091 28.6227 19.4713L32.5382 24.1376C32.8932 24.5607 32.838 25.1914 32.4149 25.5464C31.9918 25.9014 31.3611 25.8462 31.0061 25.4232L26.66 20.2437C26.3876 19.919 26.3494 19.4579 26.5646 19.0929C27.1323 18.1303 27.3876 17.0153 27.2953 15.9016C27.2031 14.7879 26.7678 13.7302 26.0495 12.8741C25.3311 12.018 24.365 11.4057 23.2842 11.1214C22.6931 10.9659 22.0836 10.9128 21.4814 10.9606Z" fill="black"/>
<path fill-rule="evenodd" clip-rule="evenodd" d="M49.2153 7.12228C49.7385 7.29891 50.0196 7.8663 49.8429 8.38958L49.5109 9.3733C49.3342 9.89658 48.7669 10.1776 48.2436 10.001C47.7203 9.82433 47.4393 9.25694 47.6159 8.73366L47.948 7.74994C48.1246 7.22666 48.692 6.94565 49.2153 7.12228ZM41.2694 7.61033C41.7638 7.36414 42.3642 7.56535 42.6104 8.05973L43.0688 8.98042C43.315 9.4748 43.1138 10.0751 42.6194 10.3213C42.1251 10.5675 41.5247 10.3663 41.2785 9.87193L40.82 8.95124C40.5739 8.45686 40.7751 7.85651 41.2694 7.61033ZM47.2488 12.9526C46.4113 12.6712 45.5064 12.6597 44.6624 12.9195C43.8185 13.1792 43.0787 13.697 42.5474 14.3987C42.0162 15.1004 41.7202 15.9507 41.701 16.8293C41.6819 17.7078 41.9404 18.5706 42.4407 19.2955C42.4666 19.3331 42.49 19.3724 42.5105 19.4132C42.6568 19.7033 42.7717 20.007 42.8538 20.319L46.2776 21.4691C46.5324 21.2698 46.8083 21.097 47.1011 20.9541C47.142 20.9342 47.1843 20.917 47.2275 20.9028C48.0663 20.6271 48.7961 20.0955 49.3139 19.3839C49.8316 18.6723 50.1113 17.8165 50.1138 16.9378C50.1162 16.059 49.8413 15.2012 49.3273 14.4859C48.8133 13.7705 48.0862 13.2339 47.2488 12.9526ZM47.1709 23.3611C47.2173 23.3211 47.2602 23.2766 47.299 23.228C47.4838 23.0489 47.6946 22.8973 47.9248 22.7784C49.1309 22.3654 50.181 21.5914 50.9311 20.5605C51.6963 19.5089 52.1101 18.2434 52.1138 16.9433C52.1174 15.6433 51.7106 14.3753 50.9515 13.3189C50.1924 12.2625 49.1197 11.4712 47.8856 11.0567C46.6515 10.6421 45.3181 10.6251 44.074 11.008C42.8299 11.3909 41.7378 12.1546 40.9528 13.1915C40.1678 14.2285 39.7299 15.4859 39.7015 16.7856C39.6737 18.0596 40.0408 19.3104 40.7512 20.3677C40.8624 20.6013 40.9382 20.8493 40.9767 21.1036C40.9782 21.1645 40.9852 21.2248 40.9976 21.2837C41.0035 21.3566 41.0064 21.4299 41.0062 21.5033C41.005 21.9161 40.9064 22.3229 40.7183 22.6907C40.4667 23.1824 40.6614 23.7849 41.153 24.0364C41.6447 24.288 42.2472 24.0933 42.4988 23.6017C42.6862 23.2352 42.8233 22.8468 42.9074 22.4468L44.9473 23.132C44.7433 23.6168 44.9509 24.1823 45.4291 24.4168C45.925 24.66 46.5241 24.4551 46.7673 23.9593C46.8411 23.8086 46.9296 23.6648 47.0316 23.53C47.0758 23.4717 47.1222 23.4154 47.1709 23.3611ZM55.2454 12.3062C55.4902 12.8013 55.2873 13.401 54.7922 13.6458L53.8689 14.1023C53.3738 14.3471 52.774 14.1442 52.5292 13.6491C52.2845 13.154 52.4874 12.5543 52.9825 12.3095L53.9058 11.853C54.4009 11.6082 55.0007 11.8111 55.2454 12.3062ZM36.0759 13.6208C36.2517 13.0973 36.8187 12.8154 37.3422 12.9913L38.3293 13.3229C38.8528 13.4987 39.1346 14.0657 38.9588 14.5892C38.7829 15.1128 38.2159 15.3946 37.6924 15.2188L36.7054 14.8872C36.1818 14.7113 35.9 14.1444 36.0759 13.6208ZM52.8551 19.2573C53.031 18.7337 53.598 18.4519 54.1215 18.6278L55.1085 18.9593C55.6321 19.1352 55.9139 19.7022 55.7381 20.2257C55.5622 20.7492 54.9952 21.0311 54.4717 20.8552L53.4847 20.5236C52.9611 20.3478 52.6793 19.7808 52.8551 19.2573Z" fill="black"/>
<path fill-rule="evenodd" clip-rule="evenodd" d="M21.3285 33.8931C22.5841 33.5935 23.8338 33.7574 24.9031 34.2239C25.4094 34.4447 25.6407 35.0341 25.4199 35.5403C25.1991 36.0465 24.6097 36.2779 24.1035 36.057C23.3965 35.7486 22.5898 35.6483 21.7926 35.8385C19.7703 36.3209 18.5913 38.205 18.988 39.9391C19.1112 40.4775 18.7746 41.0138 18.2362 41.1369C17.6978 41.2601 17.1615 40.9235 17.0384 40.3851C16.6437 38.6598 14.7841 37.5103 12.7671 37.9914C10.7776 38.466 9.60911 40.5474 9.9625 42.0921L9.96664 42.111C10.3491 43.946 11.2911 45.2899 13.0434 46.5975C14.7285 47.855 17.1064 49.0376 20.3789 50.5359C21.7205 48.8774 22.8393 47.4487 23.7347 46.158C24.0495 45.7042 24.6725 45.5916 25.1263 45.9064C25.5801 46.2212 25.6928 46.8442 25.378 47.298C24.3283 48.8111 23.0035 50.4803 21.4437 52.3978C21.1569 52.7505 20.6682 52.8653 20.2543 52.6772C16.6544 51.0414 13.8534 49.6974 11.8473 48.2005C9.79271 46.6673 8.51405 44.9323 8.01063 42.5283C7.40554 39.8554 9.31148 36.7596 12.303 36.046C14.1443 35.6068 16.0156 36.0811 17.3313 37.2056C18.018 35.6034 19.4868 34.3324 21.3285 33.8931Z" fill="black"/>
<path d="M54.5044 57.7473L54.4931 57.7463L54.4542 57.7425C54.4211 57.7392 54.3739 57.7343 54.3136 57.7275C54.1929 57.7139 54.0194 57.6927 53.8011 57.6618C53.3646 57.6 52.7468 57.499 52.0106 57.341C50.6412 57.0472 48.84 56.5518 47.0254 55.7327C45.0686 56.435 42.9328 56.7349 40.7288 56.5421C32.5675 55.8281 26.5302 48.6332 27.2442 40.4718C27.9583 32.3104 35.1532 26.2732 43.3146 26.9872C51.4759 27.7012 57.5132 34.8961 56.7992 43.0575C56.5929 45.4149 55.845 47.5977 54.6879 49.4914C53.6785 51.1435 53.8246 52.7593 54.2549 54.0244C54.4712 54.6604 54.7559 55.1925 54.9874 55.5656C55.1025 55.7511 55.2026 55.8943 55.2715 55.9882C55.3058 56.035 55.3323 56.0694 55.3487 56.0902L55.3654 56.1113C55.6235 56.4215 55.6704 56.8572 55.4835 57.2149C55.2964 57.5728 54.912 57.783 54.5097 57.7478L54.5044 57.7473Z" fill="#148DEA"/>
<path d="M40.7203 47.8231C40.7573 47.4002 41.1301 47.0874 41.5529 47.1244C41.9758 47.1614 42.2885 47.5342 42.2516 47.957C42.2146 48.3799 41.8418 48.6927 41.4189 48.6557C40.9961 48.6187 40.6833 48.2459 40.7203 47.8231Z" fill="black"/>
<path fill-rule="evenodd" clip-rule="evenodd" d="M42.0084 48.1699C42.1567 48.1699 42.2769 48.0496 42.2769 47.9013C42.2769 47.753 42.1567 47.6328 42.0084 47.6328C41.8601 47.6327 41.7398 47.753 41.7398 47.9013C41.7398 48.0496 41.86 48.1698 42.0084 48.1699ZM43.2769 47.9014C43.2769 48.602 42.7089 49.1699 42.0083 49.1699C41.3077 49.1698 40.7398 48.6018 40.7398 47.9012C40.7399 47.2006 41.3078 46.6327 42.0084 46.6328C42.709 46.6328 43.277 47.2008 43.2769 47.9014Z" fill="black"/>
<path fill-rule="evenodd" clip-rule="evenodd" d="M42.0083 44.2896C41.456 44.2896 41.0083 43.8418 41.0084 43.2896L41.0088 35.604C41.0088 35.0518 41.4566 34.6041 42.0088 34.6041C42.5611 34.6041 43.0088 35.0519 43.0088 35.6042L43.0084 43.2897C43.0083 43.8419 42.5606 44.2896 42.0083 44.2896Z" fill="black"/>
</svg>
