<svg width="64" height="64" viewBox="0 0 64 64" fill="none" xmlns="http://www.w3.org/2000/svg">
<path fill-rule="evenodd" clip-rule="evenodd" d="M21.4814 10.9609L23.8258 13.7549C23.9963 13.9581 24.0791 14.2206 24.056 14.4848L23.7769 17.6747C23.7288 18.2249 23.2438 18.6319 22.6936 18.5838L19.5037 18.3047C19.2395 18.2816 18.9953 18.1544 18.8248 17.9513L16.4803 15.1573C16.3286 15.742 16.2751 16.3515 16.3256 16.9606C16.4179 18.0744 16.8531 19.1321 17.5715 19.9882C18.2898 20.8443 19.2559 21.4566 20.3367 21.7409C21.4175 22.0251 22.5598 21.9673 23.6064 21.5754C24.0032 21.4268 24.4507 21.5445 24.7231 21.8691L29.0692 27.0486C29.4242 27.4717 29.369 28.1025 28.946 28.4575C28.5229 28.8125 27.8921 28.7573 27.5371 28.3342L23.6216 23.6679C22.3832 23.9987 21.0756 24.0032 19.828 23.6751C18.3472 23.2856 17.0236 22.4467 16.0394 21.2738C15.0552 20.1009 14.4588 18.6517 14.3324 17.1258C14.206 15.5999 14.5558 14.0723 15.3335 12.7534C15.4984 12.4738 15.7888 12.2916 16.1124 12.2648C16.4359 12.238 16.7523 12.3699 16.961 12.6186L20.0906 16.3484L21.8717 16.5042L22.0275 14.7232L18.8978 10.9934C18.6892 10.7447 18.6142 10.4102 18.6968 10.0962C18.7793 9.78226 19.0092 9.52793 19.3132 9.41409C20.7471 8.87715 22.3122 8.79796 23.793 9.18742C25.2737 9.57688 26.5973 10.4158 27.5815 11.5887C28.5657 12.7617 29.1621 14.2108 29.2885 15.7367C29.395 17.0224 29.1635 18.3093 28.6227 19.4715L32.5382 24.1378C32.8932 24.5609 32.838 25.1917 32.4149 25.5467C31.9918 25.9017 31.3611 25.8465 31.0061 25.4234L26.66 20.2439C26.3876 19.9193 26.3494 19.4582 26.5646 19.0932C27.1323 18.1305 27.3876 17.0156 27.2953 15.9019C27.2031 14.7881 26.7678 13.7304 26.0495 12.8743C25.3311 12.0182 24.365 11.4059 23.2842 11.1216C22.6931 10.9662 22.0836 10.913 21.4814 10.9609Z" fill="white"/>
<path fill-rule="evenodd" clip-rule="evenodd" d="M49.2153 7.12228C49.7385 7.29891 50.0196 7.8663 49.8429 8.38958L49.5109 9.3733C49.3342 9.89658 48.7669 10.1776 48.2436 10.001C47.7203 9.82433 47.4393 9.25694 47.6159 8.73366L47.948 7.74994C48.1246 7.22666 48.692 6.94565 49.2153 7.12228ZM41.2694 7.61033C41.7638 7.36414 42.3642 7.56535 42.6104 8.05973L43.0688 8.98042C43.315 9.4748 43.1138 10.0751 42.6194 10.3213C42.1251 10.5675 41.5247 10.3663 41.2785 9.87193L40.82 8.95124C40.5739 8.45686 40.7751 7.85651 41.2694 7.61033ZM47.2488 12.9526C46.4113 12.6712 45.5064 12.6597 44.6624 12.9195C43.8185 13.1792 43.0787 13.697 42.5474 14.3987C42.0162 15.1004 41.7202 15.9507 41.701 16.8293C41.6819 17.7078 41.9404 18.5706 42.4407 19.2955C42.4666 19.3331 42.49 19.3724 42.5105 19.4132C42.6568 19.7033 42.7717 20.007 42.8538 20.319L46.2776 21.4691C46.5324 21.2698 46.8083 21.097 47.1011 20.9541C47.142 20.9342 47.1843 20.917 47.2275 20.9028C48.0663 20.6271 48.7961 20.0955 49.3139 19.3839C49.8316 18.6723 50.1113 17.8165 50.1138 16.9378C50.1162 16.059 49.8413 15.2012 49.3273 14.4859C48.8133 13.7705 48.0862 13.2339 47.2488 12.9526ZM47.1709 23.3611C47.2173 23.3211 47.2602 23.2766 47.299 23.228C47.4838 23.0489 47.6946 22.8973 47.9248 22.7784C49.1309 22.3654 50.181 21.5914 50.9311 20.5605C51.6963 19.5089 52.1101 18.2434 52.1138 16.9433C52.1174 15.6433 51.7106 14.3753 50.9515 13.3189C50.1924 12.2625 49.1197 11.4712 47.8856 11.0567C46.6515 10.6421 45.3181 10.6251 44.074 11.008C42.8299 11.3909 41.7378 12.1546 40.9528 13.1915C40.1678 14.2285 39.7299 15.4859 39.7015 16.7856C39.6737 18.0596 40.0408 19.3104 40.7512 20.3677C40.8624 20.6013 40.9382 20.8493 40.9767 21.1036C40.9782 21.1645 40.9852 21.2248 40.9976 21.2837C41.0035 21.3566 41.0064 21.4299 41.0062 21.5033C41.005 21.9161 40.9064 22.3229 40.7183 22.6907C40.4667 23.1824 40.6614 23.7849 41.153 24.0364C41.6447 24.288 42.2472 24.0933 42.4988 23.6017C42.6862 23.2352 42.8233 22.8468 42.9074 22.4468L44.9473 23.132C44.7433 23.6168 44.9509 24.1823 45.4291 24.4168C45.925 24.66 46.5241 24.4551 46.7673 23.9593C46.8411 23.8086 46.9296 23.6648 47.0316 23.53C47.0758 23.4717 47.1222 23.4154 47.1709 23.3611ZM55.2454 12.3062C55.4902 12.8013 55.2873 13.401 54.7922 13.6458L53.8689 14.1023C53.3738 14.3471 52.774 14.1442 52.5292 13.6491C52.2845 13.154 52.4874 12.5543 52.9825 12.3095L53.9058 11.853C54.4009 11.6082 55.0007 11.8111 55.2454 12.3062ZM36.0759 13.6208C36.2517 13.0973 36.8187 12.8154 37.3422 12.9913L38.3293 13.3229C38.8528 13.4987 39.1346 14.0657 38.9588 14.5892C38.7829 15.1128 38.2159 15.3946 37.6924 15.2188L36.7054 14.8872C36.1818 14.7113 35.9 14.1444 36.0759 13.6208ZM52.8551 19.2573C53.031 18.7337 53.598 18.4519 54.1215 18.6278L55.1085 18.9593C55.6321 19.1352 55.9139 19.7022 55.7381 20.2257C55.5622 20.7492 54.9952 21.0311 54.4717 20.8552L53.4847 20.5236C52.9611 20.3478 52.6793 19.7808 52.8551 19.2573Z" fill="white"/>
<path fill-rule="evenodd" clip-rule="evenodd" d="M21.3285 33.8931C22.5841 33.5935 23.8338 33.7574 24.9031 34.2239C25.4094 34.4447 25.6407 35.0341 25.4199 35.5403C25.1991 36.0465 24.6097 36.2779 24.1035 36.057C23.3965 35.7486 22.5898 35.6483 21.7926 35.8385C19.7703 36.3209 18.5913 38.205 18.988 39.9391C19.1112 40.4775 18.7746 41.0138 18.2362 41.1369C17.6978 41.2601 17.1615 40.9235 17.0384 40.3851C16.6437 38.6598 14.7841 37.5103 12.7671 37.9914C10.7776 38.466 9.60911 40.5474 9.9625 42.0921L9.96664 42.111C10.3491 43.946 11.2911 45.2899 13.0434 46.5975C14.7285 47.855 17.1064 49.0376 20.3789 50.5359C21.7205 48.8774 22.8393 47.4487 23.7347 46.158C24.0495 45.7042 24.6725 45.5916 25.1263 45.9064C25.5801 46.2212 25.6928 46.8442 25.378 47.298C24.3283 48.8111 23.0035 50.4803 21.4437 52.3978C21.1569 52.7505 20.6682 52.8653 20.2543 52.6772C16.6544 51.0414 13.8534 49.6974 11.8473 48.2005C9.79271 46.6673 8.51405 44.9323 8.01063 42.5283C7.40554 39.8554 9.31148 36.7596 12.303 36.046C14.1443 35.6068 16.0156 36.0811 17.3313 37.2056C18.018 35.6034 19.4868 34.3324 21.3285 33.8931Z" fill="white"/>
<path d="M54.5044 57.7476L54.4931 57.7465L54.4542 57.7427C54.4211 57.7394 54.3739 57.7345 54.3136 57.7277C54.1929 57.7141 54.0194 57.693 53.8011 57.662C53.3646 57.6002 52.7468 57.4992 52.0106 57.3412C50.6412 57.0474 48.84 56.552 47.0254 55.733C45.0686 56.4352 42.9328 56.7352 40.7288 56.5424C32.5675 55.8283 26.5302 48.6334 27.2442 40.472C27.9583 32.3107 35.1532 26.2734 43.3146 26.9874C51.4759 27.7015 57.5132 34.8964 56.7992 43.0578C56.5929 45.4152 55.845 47.598 54.6879 49.4917C53.6785 51.1438 53.8246 52.7595 54.2549 54.0247C54.4712 54.6607 54.7559 55.1928 54.9874 55.5659C55.1025 55.7513 55.2026 55.8946 55.2715 55.9884C55.3058 56.0353 55.3323 56.0696 55.3487 56.0905L55.3654 56.1116C55.6235 56.4218 55.6704 56.8575 55.4835 57.2151C55.2964 57.573 54.912 57.7832 54.5097 57.748L54.5044 57.7476Z" fill="#148DEA"/>
<path d="M40.7203 47.8228C40.7573 47.4 41.1301 47.0872 41.5529 47.1242C41.9758 47.1612 42.2885 47.5339 42.2516 47.9568C42.2146 48.3796 41.8418 48.6924 41.4189 48.6554C40.9961 48.6184 40.6833 48.2457 40.7203 47.8228Z" fill="white"/>
<path fill-rule="evenodd" clip-rule="evenodd" d="M42.0084 48.1696C42.1567 48.1696 42.2769 48.0494 42.2769 47.9011C42.2769 47.7528 42.1567 47.6325 42.0084 47.6325C41.8601 47.6325 41.7398 47.7527 41.7398 47.901C41.7398 48.0494 41.86 48.1696 42.0084 48.1696ZM43.2769 47.9011C43.2769 48.6017 42.7089 49.1696 42.0083 49.1696C41.3077 49.1696 40.7398 48.6016 40.7398 47.901C40.7399 47.2004 41.3078 46.6325 42.0084 46.6325C42.709 46.6325 43.277 47.2005 43.2769 47.9011Z" fill="white"/>
<path fill-rule="evenodd" clip-rule="evenodd" d="M42.0083 44.2899C41.456 44.2898 41.0083 43.8421 41.0084 43.2898L41.0088 35.6043C41.0088 35.052 41.4566 34.6043 42.0088 34.6043C42.5611 34.6044 43.0088 35.0521 43.0088 35.6044L43.0084 43.2899C43.0083 43.8422 42.5606 44.2899 42.0083 44.2899Z" fill="white"/>
</svg>
