<svg width="64" height="64" viewBox="0 0 64 64" fill="none" xmlns="http://www.w3.org/2000/svg">
<path d="M24.712 35.9041C26.959 35.9041 28.7805 34.0825 28.7805 31.8356C28.7805 29.5886 26.959 27.7671 24.712 27.7671C22.4651 27.7671 20.6436 29.5886 20.6436 31.8356C20.6436 34.0825 22.4651 35.9041 24.712 35.9041Z" fill="#148DEA"/>
<path fill-rule="evenodd" clip-rule="evenodd" d="M24.712 28.7671C23.0174 28.7671 21.6436 30.1409 21.6436 31.8356C21.6436 33.5303 23.0174 34.9041 24.712 34.9041C26.4067 34.9041 27.7805 33.5303 27.7805 31.8356C27.7805 30.1409 26.4067 28.7671 24.712 28.7671ZM19.6436 31.8356C19.6436 29.0363 21.9128 26.7671 24.712 26.7671C27.5113 26.7671 29.7805 29.0363 29.7805 31.8356C29.7805 34.6348 27.5113 36.9041 24.712 36.9041C21.9128 36.9041 19.6436 34.6348 19.6436 31.8356Z" fill="#148DEA"/>
<path d="M41.589 35.9041C43.836 35.9041 45.6575 34.0825 45.6575 31.8356C45.6575 29.5886 43.836 27.7671 41.589 27.7671C39.342 27.7671 37.5205 29.5886 37.5205 31.8356C37.5205 34.0825 39.342 35.9041 41.589 35.9041Z" fill="#148DEA"/>
<path fill-rule="evenodd" clip-rule="evenodd" d="M41.589 28.7671C39.8943 28.7671 38.5205 30.1409 38.5205 31.8356C38.5205 33.5303 39.8943 34.9041 41.589 34.9041C43.2837 34.9041 44.6575 33.5303 44.6575 31.8356C44.6575 30.1409 43.2837 28.7671 41.589 28.7671ZM36.5205 31.8356C36.5205 29.0363 38.7897 26.7671 41.589 26.7671C44.3883 26.7671 46.6575 29.0363 46.6575 31.8356C46.6575 34.6348 44.3883 36.9041 41.589 36.9041C38.7897 36.9041 36.5205 34.6348 36.5205 31.8356Z" fill="#148DEA"/>
<path d="M16.5001 48.0818C15.7144 47.7889 15.2125 47.4762 15.315 46.7575C15.736 43.8051 17.5154 41.2905 20 39.8669C21.3886 39.0713 22.9975 38.6165 24.7126 38.6165C28.3864 38.6165 31.5727 40.7033 33.1509 43.7563C34.7292 40.7033 37.9155 38.6165 41.5893 38.6165C46.3732 38.6165 50.3306 42.155 50.9869 46.7575C51.0926 47.499 50.5551 47.8082 49.7263 48.1096C38.7857 49.6874 27.5958 49.6989 16.6552 48.1211C16.6023 48.1135 16.5502 48.1005 16.5001 48.0818Z" fill="#148DEA"/>
<path fill-rule="evenodd" clip-rule="evenodd" d="M24.7124 39.6165C23.1763 39.6165 21.7383 40.0234 20.497 40.7346C18.2744 42.0081 16.6844 44.2556 16.306 46.8903C16.332 46.909 16.3724 46.9348 16.4332 46.9667C16.5309 47.0179 16.6575 47.0725 16.823 47.135C27.6253 48.6903 38.6739 48.6829 49.4788 47.1349C49.626 47.0793 49.7438 47.0295 49.8391 46.9817C49.9159 46.9431 49.9652 46.9122 49.9956 46.8903C49.4049 42.7776 45.8653 39.6165 41.5892 39.6165C38.3038 39.6165 35.4524 41.4816 34.0391 44.2155L33.1508 45.9339L32.2625 44.2155C30.8492 41.4816 27.9978 39.6165 24.7124 39.6165ZM19.5027 38.9992C21.0386 38.1192 22.8183 37.6165 24.7124 37.6165C28.1725 37.6165 31.2402 39.2913 33.1508 41.8717C35.0614 39.2913 38.1291 37.6165 41.5892 37.6165C46.8778 37.6165 51.2511 41.5281 51.9767 46.6163C52.0752 47.3067 51.8558 47.8986 51.3855 48.3331C50.998 48.6911 50.4808 48.8993 50.0679 49.0494L49.9709 49.0846L49.8689 49.0994C38.8343 50.6907 27.5482 50.7024 16.5123 49.1108C16.3931 49.0936 16.2714 49.0638 16.1506 49.0188C15.7511 48.8699 15.2518 48.6598 14.8779 48.297C14.4288 47.8611 14.2302 47.2803 14.3249 46.6163C14.7907 43.3498 16.7586 40.5715 19.5027 38.9992Z" fill="#148DEA"/>
<path fill-rule="evenodd" clip-rule="evenodd" d="M13.373 25.7124C13.9253 25.7124 14.373 26.1601 14.373 26.7124V31.459C14.373 32.0113 13.9253 32.459 13.373 32.459C12.8208 32.459 12.373 32.0113 12.373 31.459V26.7124C12.373 26.1601 12.8208 25.7124 13.373 25.7124Z" fill="white"/>
<path fill-rule="evenodd" clip-rule="evenodd" d="M42.9072 12C43.4595 12 43.9072 12.4477 43.9072 13V17.7466C43.9072 18.2989 43.4595 18.7466 42.9072 18.7466C42.3549 18.7466 41.9072 18.2989 41.9072 17.7466V13C41.9072 12.4477 42.3549 12 42.9072 12Z" fill="white"/>
<path fill-rule="evenodd" clip-rule="evenodd" d="M10 29.0857C10 28.5334 10.4477 28.0857 11 28.0857H15.7466C16.2989 28.0857 16.7466 28.5334 16.7466 29.0857C16.7466 29.638 16.2989 30.0857 15.7466 30.0857H11C10.4477 30.0857 10 29.638 10 29.0857Z" fill="white"/>
<path fill-rule="evenodd" clip-rule="evenodd" d="M39.5342 15.3733C39.5342 14.821 39.9819 14.3733 40.5342 14.3733H45.2808C45.833 14.3733 46.2808 14.821 46.2808 15.3733C46.2808 15.9256 45.833 16.3733 45.2808 16.3733H40.5342C39.9819 16.3733 39.5342 15.9256 39.5342 15.3733Z" fill="white"/>
<path d="M27.8767 14.0548C27.8767 14.6373 27.4044 15.1096 26.8219 15.1096C26.2393 15.1096 25.7671 14.6373 25.7671 14.0548C25.7671 13.4722 26.2393 13 26.8219 13C27.4044 13 27.8767 13.4722 27.8767 14.0548Z" fill="white"/>
<path d="M52.1369 34.0958C52.1369 34.6784 51.6647 35.1506 51.0821 35.1506C50.4996 35.1506 50.0273 34.6784 50.0273 34.0958C50.0273 33.5133 50.4996 33.041 51.0821 33.041C51.6647 33.041 52.1369 33.5133 52.1369 34.0958Z" fill="white"/>
<path fill-rule="evenodd" clip-rule="evenodd" d="M39.4555 38.2047C39.6186 38.7324 39.323 39.2923 38.7954 39.4554C35.5247 40.4664 33.3656 42.8991 32.9951 46.6036C32.9402 47.1531 32.4501 47.5541 31.9006 47.4991C31.351 47.4442 30.9501 46.9541 31.005 46.4046C31.458 41.8747 34.1906 38.7854 38.2048 37.5446C38.7324 37.3815 39.2924 37.6771 39.4555 38.2047Z" fill="white"/>
<path fill-rule="evenodd" clip-rule="evenodd" d="M28.2851 38.6476C28.1341 39.1788 28.4424 39.7319 28.9737 39.8828C30.5179 40.3216 31.8039 41.0637 32.786 42.0653C33.1727 42.4597 33.8058 42.4659 34.2001 42.0792C34.5945 41.6925 34.6007 41.0594 34.214 40.665C32.9599 39.3862 31.3572 38.481 29.5203 37.959C28.9891 37.808 28.436 38.1163 28.2851 38.6476Z" fill="white"/>
</svg>
