<svg width="64" height="64" viewBox="0 0 64 64" fill="none" xmlns="http://www.w3.org/2000/svg">
<path d="M24.712 35.9041C26.959 35.9041 28.7805 34.0825 28.7805 31.8356C28.7805 29.5886 26.959 27.7671 24.712 27.7671C22.4651 27.7671 20.6436 29.5886 20.6436 31.8356C20.6436 34.0825 22.4651 35.9041 24.712 35.9041Z" fill="#148DEA"/>
<path fill-rule="evenodd" clip-rule="evenodd" d="M24.712 28.7671C23.0174 28.7671 21.6436 30.1409 21.6436 31.8356C21.6436 33.5303 23.0174 34.9041 24.712 34.9041C26.4067 34.9041 27.7805 33.5303 27.7805 31.8356C27.7805 30.1409 26.4067 28.7671 24.712 28.7671ZM19.6436 31.8356C19.6436 29.0363 21.9128 26.7671 24.712 26.7671C27.5113 26.7671 29.7805 29.0363 29.7805 31.8356C29.7805 34.6348 27.5113 36.9041 24.712 36.9041C21.9128 36.9041 19.6436 34.6348 19.6436 31.8356Z" fill="#148DEA"/>
<path d="M41.589 35.9041C43.836 35.9041 45.6575 34.0825 45.6575 31.8356C45.6575 29.5886 43.836 27.7671 41.589 27.7671C39.342 27.7671 37.5205 29.5886 37.5205 31.8356C37.5205 34.0825 39.342 35.9041 41.589 35.9041Z" fill="#148DEA"/>
<path fill-rule="evenodd" clip-rule="evenodd" d="M41.589 28.7671C39.8943 28.7671 38.5205 30.1409 38.5205 31.8356C38.5205 33.5303 39.8943 34.9041 41.589 34.9041C43.2837 34.9041 44.6575 33.5303 44.6575 31.8356C44.6575 30.1409 43.2837 28.7671 41.589 28.7671ZM36.5205 31.8356C36.5205 29.0363 38.7897 26.7671 41.589 26.7671C44.3883 26.7671 46.6575 29.0363 46.6575 31.8356C46.6575 34.6348 44.3883 36.9041 41.589 36.9041C38.7897 36.9041 36.5205 34.6348 36.5205 31.8356Z" fill="#148DEA"/>
<path d="M16.5001 48.0816C15.7144 47.7886 15.2125 47.476 15.315 46.7572C15.736 43.8048 17.5154 41.2902 20 39.8667C21.3886 39.071 22.9975 38.6162 24.7126 38.6162C28.3864 38.6162 31.5727 40.7031 33.1509 43.756C34.7292 40.7031 37.9155 38.6162 41.5893 38.6162C46.3732 38.6162 50.3306 42.1548 50.9869 46.7572C51.0926 47.4987 50.5551 47.808 49.7263 48.1094C38.7857 49.6872 27.5958 49.6986 16.6552 48.1208C16.6023 48.1132 16.5502 48.1003 16.5001 48.0816Z" fill="#148DEA"/>
<path fill-rule="evenodd" clip-rule="evenodd" d="M24.7124 39.6162C23.1763 39.6162 21.7383 40.0231 20.497 40.7343C18.2744 42.0078 16.6844 44.2553 16.306 46.89C16.332 46.9087 16.3724 46.9346 16.4332 46.9664C16.5309 47.0177 16.6575 47.0723 16.823 47.1347C27.6253 48.6901 38.6739 48.6827 49.4788 47.1346C49.626 47.0791 49.7438 47.0293 49.8391 46.9815C49.9159 46.9429 49.9652 46.9119 49.9956 46.89C49.4049 42.7774 45.8653 39.6162 41.5892 39.6162C38.3038 39.6162 35.4524 41.4814 34.0391 44.2152L33.1508 45.9336L32.2625 44.2152C30.8492 41.4814 27.9978 39.6162 24.7124 39.6162ZM19.5027 38.999C21.0386 38.119 22.8183 37.6162 24.7124 37.6162C28.1725 37.6162 31.2402 39.2911 33.1508 41.8715C35.0614 39.2911 38.1291 37.6162 41.5892 37.6162C46.8778 37.6162 51.2511 41.5278 51.9767 46.616C52.0752 47.3065 51.8558 47.8983 51.3855 48.3328C50.998 48.6909 50.4808 48.899 50.0679 49.0492L49.9709 49.0844L49.8689 49.0991C38.8343 50.6905 27.5482 50.7022 16.5123 49.1106C16.3931 49.0934 16.2714 49.0636 16.1506 49.0186C15.7511 48.8696 15.2518 48.6595 14.8779 48.2967C14.4288 47.8609 14.2302 47.28 14.3249 46.6161C14.7907 43.3496 16.7586 40.5713 19.5027 38.999Z" fill="#148DEA"/>
<path fill-rule="evenodd" clip-rule="evenodd" d="M13.373 25.7124C13.9253 25.7124 14.373 26.1601 14.373 26.7124V31.459C14.373 32.0113 13.9253 32.459 13.373 32.459C12.8208 32.459 12.373 32.0113 12.373 31.459V26.7124C12.373 26.1601 12.8208 25.7124 13.373 25.7124Z" fill="black"/>
<path fill-rule="evenodd" clip-rule="evenodd" d="M42.9072 12C43.4595 12 43.9072 12.4477 43.9072 13V17.7466C43.9072 18.2989 43.4595 18.7466 42.9072 18.7466C42.3549 18.7466 41.9072 18.2989 41.9072 17.7466V13C41.9072 12.4477 42.3549 12 42.9072 12Z" fill="black"/>
<path fill-rule="evenodd" clip-rule="evenodd" d="M10 29.0854C10 28.5332 10.4477 28.0854 11 28.0854H15.7466C16.2989 28.0854 16.7466 28.5332 16.7466 29.0854C16.7466 29.6377 16.2989 30.0854 15.7466 30.0854H11C10.4477 30.0854 10 29.6377 10 29.0854Z" fill="black"/>
<path fill-rule="evenodd" clip-rule="evenodd" d="M39.5342 15.373C39.5342 14.8208 39.9819 14.373 40.5342 14.373H45.2808C45.833 14.373 46.2808 14.8208 46.2808 15.373C46.2808 15.9253 45.833 16.373 45.2808 16.373H40.5342C39.9819 16.373 39.5342 15.9253 39.5342 15.373Z" fill="black"/>
<path d="M27.8767 14.0548C27.8767 14.6373 27.4044 15.1096 26.8219 15.1096C26.2393 15.1096 25.7671 14.6373 25.7671 14.0548C25.7671 13.4722 26.2393 13 26.8219 13C27.4044 13 27.8767 13.4722 27.8767 14.0548Z" fill="black"/>
<path d="M52.1369 34.0958C52.1369 34.6784 51.6647 35.1506 51.0821 35.1506C50.4996 35.1506 50.0273 34.6784 50.0273 34.0958C50.0273 33.5133 50.4996 33.041 51.0821 33.041C51.6647 33.041 52.1369 33.5133 52.1369 34.0958Z" fill="black"/>
<path fill-rule="evenodd" clip-rule="evenodd" d="M39.4555 38.2045C39.6186 38.7321 39.323 39.2921 38.7954 39.4552C35.5247 40.4661 33.3656 42.8989 32.9951 46.6034C32.9402 47.1529 32.4501 47.5538 31.9006 47.4989C31.351 47.4439 30.9501 46.9539 31.005 46.4043C31.458 41.8745 34.1906 38.7851 38.2048 37.5444C38.7324 37.3813 39.2924 37.6768 39.4555 38.2045Z" fill="black"/>
<path fill-rule="evenodd" clip-rule="evenodd" d="M28.2851 38.6473C28.1341 39.1786 28.4424 39.7316 28.9737 39.8826C30.5179 40.3214 31.8039 41.0635 32.786 42.0651C33.1727 42.4594 33.8058 42.4656 34.2001 42.0789C34.5945 41.6923 34.6007 41.0591 34.214 40.6648C32.9599 39.3859 31.3572 38.4807 29.5203 37.9587C28.9891 37.8078 28.436 38.1161 28.2851 38.6473Z" fill="black"/>
</svg>
