<svg width="165" height="98" viewBox="0 0 165 98" fill="none" xmlns="http://www.w3.org/2000/svg">
<path d="M29 14.7039L29 83.2961C29 91.412 22.5141 98 14.506 98C6.49938 98 0 91.4135 0 83.2961L0 14.7039C0 6.58653 6.49789 0 14.506 0C18.5093 0 22.1332 1.6504 24.7592 4.31075C27.3718 6.97262 29 10.646 29 14.7039Z" fill="#DB256E"/>
<path d="M74 51.7812L74 83.2188C74 91.3773 67.5141 98 59.506 98C51.4979 98 45 91.3788 45 83.2188L45 51.7812C45 43.6227 51.4979 37 59.506 37C63.5093 37 67.1332 38.6591 69.7592 41.3335C72.3718 44.0093 74 47.7019 74 51.7812Z" fill="#9231FE"/>
<path d="M119 72.8964L119 83.1036C119 91.3257 112.514 98 104.506 98C96.4979 98 90 91.3272 90 83.1036L90 72.8964C90 64.6743 96.4979 58 104.506 58C108.509 58 112.133 59.6721 114.759 62.3673C117.372 65.064 119 68.7854 119 72.8964Z" fill="#5EC612"/>
<path d="M149.5 98C141.492 98 135 91.4189 135 83.3008L135 14.6992C135 6.58109 141.492 0 149.5 0C157.508 0 164 6.58109 164 14.6992L164 83.3008C163.999 91.4189 157.507 98 149.5 98Z" fill="#EB5325"/>
</svg>
