<svg width="64" height="64" viewBox="0 0 64 64" fill="none" xmlns="http://www.w3.org/2000/svg">
<path d="M28.101 37.3048C30.6166 37.3048 32.6559 35.2656 32.6559 32.7498C32.6559 30.2341 30.6166 28.1948 28.101 28.1948C25.5853 28.1948 23.5459 30.2341 23.5459 32.7498C23.5459 35.2656 25.5853 37.3048 28.101 37.3048Z" fill="#148DEA"/>
<path fill-rule="evenodd" clip-rule="evenodd" d="M22.4829 32.7501C22.4829 29.6474 24.9981 27.1323 28.1008 27.1323C31.2033 27.1323 33.7185 29.6474 33.7185 32.7501C33.7185 35.8528 31.2033 38.3679 28.1008 38.3679C24.9981 38.3679 22.4829 35.8528 22.4829 32.7501ZM28.1008 29.2579C26.172 29.2579 24.6085 30.8214 24.6085 32.7501C24.6085 34.6789 26.172 36.2423 28.1008 36.2423C30.0294 36.2423 31.5929 34.6789 31.5929 32.7501C31.5929 30.8213 30.0294 29.2579 28.1008 29.2579Z" fill="#148DEA"/>
<path d="M16.4166 50.05C16.9068 43.9234 21.883 39.2788 28.1002 39.2788C34.334 39.2788 39.3088 43.9964 39.7858 50.1342C39.8698 51.2141 39.1245 52.108 38.1615 52.345C31.6432 53.9497 24.8386 53.9531 18.3188 52.3552L18.0635 52.2926C17.087 52.0532 16.3289 51.1467 16.4166 50.05Z" fill="#148DEA"/>
<path fill-rule="evenodd" clip-rule="evenodd" d="M15 15.5C15 13.0147 17.0147 11 19.5 11H47.5C49.9853 11 52 13.0147 52 15.5V26.6553C52 29.1406 49.9853 31.1553 47.5 31.1553H47.0633L39.9678 40.3108C39.456 41.0085 38.6223 41.1042 38.0156 40.895C37.3981 40.682 36.814 40.0917 36.814 39.2329V31.1553H35.1864C34.6342 31.1553 34.1864 30.7076 34.1864 30.1553C34.1864 29.603 34.6342 29.1553 35.1864 29.1553H37.814C38.3663 29.1553 38.814 29.603 38.814 30.1553V38.5346L45.7828 29.5427C45.9722 29.2983 46.264 29.1553 46.5732 29.1553H47.5C48.8807 29.1553 50 28.036 50 26.6553V15.5C50 14.1193 48.8807 13 47.5 13H19.5C18.1193 13 17 14.1193 17 15.5V26.6553C17 28.036 18.1193 29.1553 19.5 29.1553H21.0153C21.5676 29.1553 22.0153 29.603 22.0153 30.1553C22.0153 30.7076 21.5676 31.1553 21.0153 31.1553H19.5C17.0147 31.1553 15 29.1406 15 26.6553V15.5Z" fill="black"/>
<path d="M30.0367 21.5183C30.0367 22.3569 29.3569 23.0367 28.5183 23.0367C27.6798 23.0367 27 22.3569 27 21.5183C27 20.6798 27.6798 20 28.5183 20C29.3569 20 30.0367 20.6798 30.0367 21.5183Z" fill="black"/>
<path d="M35.0977 21.5183C35.0977 22.3569 34.4179 23.0367 33.5794 23.0367C32.7408 23.0367 32.061 22.3569 32.061 21.5183C32.061 20.6798 32.7408 20 33.5794 20C34.4179 20 35.0977 20.6798 35.0977 21.5183Z" fill="black"/>
<path d="M40.1587 21.5183C40.1587 22.3569 39.479 23.0367 38.6404 23.0367C37.8019 23.0367 37.1221 22.3569 37.1221 21.5183C37.1221 20.6798 37.8019 20 38.6404 20C39.479 20 40.1587 20.6798 40.1587 21.5183Z" fill="black"/>
</svg>
