<svg width="165" height="141" viewBox="0 0 165 141" fill="none" xmlns="http://www.w3.org/2000/svg">
<path d="M29.3921 14.7039L29.3921 83.2961C29.3921 91.412 22.9061 98 14.8981 98C6.89147 98 0.39209 91.4135 0.39209 83.2961L0.39209 14.7039C0.39209 6.58653 6.88998 0 14.8981 0C18.9014 0 22.5253 1.6504 25.1513 4.31075C27.7639 6.97262 29.3921 10.646 29.3921 14.7039Z" fill="#DB256E"/>
<path d="M74.3921 51.7812L74.3921 83.2188C74.3921 91.3773 67.9061 98 59.8981 98C51.89 98 45.3921 91.3788 45.3921 83.2188L45.3921 51.7812C45.3921 43.6227 51.89 37 59.8981 37C63.9014 37 67.5253 38.6591 70.1513 41.3335C72.7639 44.0093 74.3921 47.7019 74.3921 51.7812Z" fill="#9231FE"/>
<path d="M119.392 72.8964L119.392 83.1036C119.392 91.3257 112.906 98 104.898 98C96.89 98 90.3921 91.3272 90.3921 83.1036L90.3921 72.8964C90.3921 64.6743 96.89 58 104.898 58C108.901 58 112.525 59.6721 115.151 62.3673C117.764 65.064 119.392 68.7854 119.392 72.8964Z" fill="#5EC612"/>
<path d="M149.892 98C141.884 98 135.392 91.4189 135.392 83.3008L135.392 14.6992C135.392 6.58109 141.884 0 149.892 0C157.9 0 164.392 6.58109 164.392 14.6992L164.392 83.3008C164.391 91.4189 157.899 98 149.892 98Z" fill="#EB5325"/>
<path d="M160.1 123.704C157.892 123.704 156.388 122.072 156.388 119.96C156.388 117.848 157.892 116.184 160.1 116.184C162.308 116.184 163.812 117.848 163.812 119.96C163.812 122.072 162.308 123.704 160.1 123.704ZM157.508 140.6L156.324 137.848C159.172 136.856 160.548 135.256 160.484 133.304C160.356 133.336 160.26 133.336 160.132 133.336C158.34 133.336 156.676 132.184 156.676 130.072C156.676 128.088 158.276 126.776 160.26 126.776C162.884 126.776 164.228 128.824 164.228 132.28C164.228 136.344 161.924 139.256 157.508 140.6Z" fill="#148DEA"/>
<path d="M134.673 138.52V136.024H135.985C138.609 136.024 139.217 135.576 139.217 133.784C139.217 132.056 139.089 130.52 139.089 128.568C139.089 126.136 139.985 125.208 142.289 124.824V124.696C139.985 124.312 139.089 123.384 139.089 120.952C139.089 119.064 139.217 117.432 139.217 115.736C139.217 113.944 138.609 113.496 135.985 113.496H134.673V111H137.137C141.233 111 143.089 112.088 143.089 115.544C143.089 117.784 142.737 119.032 142.737 121.016C142.737 122.136 143.665 123.32 147.153 123.384V126.136C143.665 126.2 142.737 127.384 142.737 128.504C142.737 130.52 143.089 131.704 143.089 133.976C143.089 137.432 141.233 138.52 137.137 138.52H134.673Z" fill="#148DEA"/>
<path d="M116.701 139.864C115.773 139.864 114.941 139.736 114.269 139.544L115.101 135.96C115.517 136.088 115.933 136.152 116.349 136.152C118.173 136.152 119.165 135.32 119.677 134.072L119.997 133.24L113.117 117.784H117.789L120.445 124.6C121.021 126.104 121.533 127.704 122.045 129.368H122.173C122.589 127.8 123.133 126.168 123.613 124.6L125.949 117.784H130.397L124.125 133.816C122.589 137.816 120.701 139.864 116.701 139.864Z" fill="#148DEA"/>
<path d="M103.498 134.04C98.5375 134.04 94.6975 131 94.6975 125.72C94.6975 120.504 98.6975 117.4 102.954 117.4C107.85 117.4 110.442 120.696 110.442 125.016C110.442 125.88 110.282 126.744 110.218 127.128H99.4015C99.8495 129.432 101.546 130.456 104.138 130.456C105.578 130.456 106.826 130.072 108.234 129.336L109.802 132.184C107.978 133.336 105.61 134.04 103.498 134.04ZM103.114 120.984C101.258 120.984 99.9455 121.976 99.4655 123.96H106.25C106.026 122.008 104.938 120.984 103.114 120.984Z" fill="#148DEA"/>
<path d="M80.7259 133.656L74.7419 117.784H79.4779L81.9739 125.272C82.4859 126.872 82.9339 128.504 83.4139 130.168H83.5419C84.0219 128.504 84.4379 126.872 84.9499 125.272L87.4459 117.784H91.9579L86.1339 133.656H80.7259Z" fill="#148DEA"/>
<path d="M58.2744 133.656V117.784H62.1144L62.4984 121.24H62.5944C64.1624 118.648 66.4984 117.4 69.0264 117.4C70.4344 117.4 71.1704 117.624 72.0984 118.04L71.1384 121.976C70.1464 121.688 69.5064 121.528 68.3224 121.528C66.3704 121.528 64.3224 122.552 62.9784 125.4V133.656H58.2744Z" fill="#148DEA"/>
<path d="M42.5109 134.04C38.8949 134.04 37.3589 131.576 37.3589 127.576V117.784H42.0629V126.968C42.0629 129.08 42.6069 130.04 44.3669 130.04C45.5509 130.04 46.3829 129.624 47.4709 128.216V117.784H52.1749V133.656H48.3349L47.9829 131.384H47.8549C46.4469 132.984 44.7829 134.04 42.5109 134.04Z" fill="#148DEA"/>
<path d="M25.6595 134.04C22.8115 134.04 19.8995 132.952 17.8835 131.608L19.8995 128.664C21.8515 129.88 24.0275 130.552 26.2995 130.552C28.0275 130.552 28.8275 129.976 28.8275 129.208C28.8275 128.312 28.0275 127.992 24.9235 127.32C20.6035 126.392 18.8755 124.824 18.8755 122.36C18.8755 119.416 21.6595 117.4 26.1715 117.4C29.0195 117.4 31.3875 118.52 33.0515 119.576L30.9395 122.392C29.3395 121.432 27.5155 120.888 25.7555 120.888C24.2835 120.888 23.5475 121.4 23.5475 122.136C23.5475 123.032 24.5395 123.224 27.2275 123.832C32.1235 124.952 33.4675 126.328 33.4675 128.92C33.4675 131.8 30.7475 134.04 25.6595 134.04Z" fill="#148DEA"/>
<path d="M10.4081 138.52C6.31209 138.52 4.45609 137.432 4.45609 133.976C4.45609 131.704 4.77609 130.52 4.77609 128.504C4.77609 127.384 3.84809 126.2 0.39209 126.136V123.384C3.84809 123.32 4.77609 122.136 4.77609 121.016C4.77609 119.032 4.45609 117.784 4.45609 115.544C4.45609 112.088 6.31209 111 10.4081 111H12.8721V113.496H11.5601C8.90409 113.496 8.29609 113.944 8.29609 115.736C8.29609 117.432 8.45609 119.064 8.45609 120.952C8.45609 123.384 7.52809 124.312 5.25609 124.696V124.824C7.52809 125.208 8.45609 126.136 8.45609 128.568C8.45609 130.52 8.29609 132.056 8.29609 133.784C8.29609 135.576 8.90409 136.024 11.5601 136.024H12.8721V138.52H10.4081Z" fill="#148DEA"/>
</svg>
