<svg width="64" height="64" viewBox="0 0 64 64" fill="none" xmlns="http://www.w3.org/2000/svg">
<path d="M16.9781 42.9961L13 33.3226C14.3837 32.1007 15.6521 32.8135 16.1133 33.3226L19.1137 37.6125C19.4154 38.0439 20.0922 37.7575 19.9927 37.2405L17.6699 25.1766C17.151 22.9704 20.2643 21.9521 21.1291 23.9886L23.8965 34.85V22.9704C24.0694 20.5944 27.5287 20.7641 27.5287 23.1401V34.85L30.1231 25.0068C30.8149 22.9704 33.9282 23.9886 33.4093 26.1948L30.9879 35.6986L34.62 29.0799C35.6578 27.7222 38.0792 28.9102 37.2144 30.777L32.8904 44.3516C32.6137 45.5735 31.6797 46.9553 30.9879 47.5783V52.4999H19.9184V47.5783C18.3964 46.6279 17.324 44.1275 16.9781 42.9961Z" fill="#148DEA"/>
<path fill-rule="evenodd" clip-rule="evenodd" d="M16.1133 33.3226C15.8739 33.0584 15.4171 32.7393 14.8397 32.6643C14.7743 32.6558 14.7073 32.6504 14.639 32.6486C14.1479 32.6357 13.5842 32.8067 13 33.3226L16.9781 42.9961C17.324 44.1275 18.3964 46.6279 19.9184 47.5783V52.4999H30.9879V47.5783C31.6797 46.9553 32.6137 45.5735 32.8904 44.3516L37.2144 30.777C38.053 28.9668 35.8015 27.7949 34.7181 28.9634C34.6842 28.9999 34.6515 29.0387 34.62 29.0799L30.9879 35.6986L33.4093 26.1948C33.9282 23.9886 30.8149 22.9704 30.1231 25.0068L27.5287 34.85V23.1401C27.5287 20.7641 24.0694 20.5944 23.8965 22.9704V34.85L21.1291 23.9886C20.2643 21.9521 17.151 22.9704 17.6699 25.1766L19.9927 37.2405C20.0922 37.7575 19.4154 38.0439 19.1137 37.6125L16.1133 33.3226ZM20.3997 29.0308L21.9093 36.8715C22.407 39.4566 19.0231 40.8884 17.5142 38.7311L17.0782 38.1076L18.8179 42.3382L18.8446 42.4255C18.9802 42.8689 19.2809 43.6437 19.7054 44.393C20.1547 45.186 20.6068 45.7071 20.9522 45.9227L21.8702 46.496V50.5481H29.036V46.7094L29.6817 46.1279C29.8536 45.9731 30.147 45.6305 30.4326 45.1665C30.7173 44.704 30.9109 44.2555 30.9868 43.9205L31.0053 43.8389L34.1296 34.0306L32.6989 36.6376L29.4171 35.3432L29.416 35.3475L25.7103 34.8673L22.0051 35.332L20.3997 29.0308Z" fill="#148DEA"/>
<path fill-rule="evenodd" clip-rule="evenodd" d="M33.9816 11.9998C33.9816 11.4609 33.5447 11.0239 33.0057 11.0239C32.4667 11.0239 32.0298 11.4609 32.0298 11.9998V16.0362C32.0298 16.5751 32.4667 17.0121 33.0057 17.0121C33.5447 17.0121 33.9816 16.5751 33.9816 16.0362V11.9998ZM39.0321 21.2741C37.7653 21.3348 36.4608 22.2838 36.4608 23.9991V27.1263C36.4608 27.6653 36.8977 28.1022 37.4367 28.1022C37.9756 28.1022 38.4126 27.6653 38.4126 27.1263V23.9991C38.4126 23.6968 38.5148 23.5277 38.6206 23.4264C38.7404 23.3118 38.9204 23.2335 39.1254 23.2237C39.3305 23.2139 39.5094 23.2749 39.6294 23.3717C39.7301 23.4528 39.8394 23.5974 39.8666 23.8803V34.9772L41.7882 35.2182L44.3618 25.1191C44.4607 24.9196 44.5883 24.8282 44.7061 24.7828C44.8519 24.7265 45.042 24.7202 45.2353 24.7851C45.4281 24.8498 45.5788 24.9702 45.6648 25.1085C45.7408 25.2309 45.7943 25.4095 45.7326 25.6783L42.9081 36.8772C42.4288 38.7775 44.9504 39.9167 46.0596 38.301L48.8993 34.1646C49.0065 34.0634 49.2025 33.9373 49.4327 33.8999C49.5384 33.8827 49.6766 33.8793 49.8456 33.9323L46.4273 42.2429L46.4099 42.2851L46.3966 42.3287C46.2531 42.798 45.9475 43.5826 45.5158 44.3445C45.0716 45.1284 44.5617 45.7663 44.0559 46.0821L43.5968 46.3687V46.9099V50.548H35.1689V46.9099C35.1689 46.3709 34.732 45.934 34.193 45.934C33.654 45.934 33.2171 46.3709 33.2171 46.9099V51.5239V52.4998H34.193H44.5727H45.5486V51.5239V47.4054C46.2492 46.8266 46.8033 46.0313 47.2139 45.3068C47.71 44.4313 48.0641 43.5369 48.2491 42.9446L51.9625 33.9165L52.2269 33.2737L51.7059 32.8137C50.8519 32.0596 49.9396 31.84 49.1193 31.9734C48.3505 32.0984 47.755 32.5175 47.4175 32.89L47.3734 32.9387L47.3362 32.9929L45.0671 36.2981L47.6273 26.147L47.6293 26.1394L47.631 26.1318C48.0087 24.5266 47.0218 23.3258 45.8563 22.9347C44.6969 22.5456 43.1804 22.9033 42.5392 24.4131L42.5101 24.4815L42.4917 24.5536L41.8184 27.1958V23.84V23.8045L41.8158 23.7691C41.7568 22.9585 41.404 22.2952 40.8544 21.8521C40.3207 21.4219 39.6582 21.2442 39.0321 21.2741ZM42.0203 39.1536C42.3845 39.551 42.3576 40.1683 41.9603 40.5325C40.7749 41.6191 40.3682 43.1995 40.322 43.7925C40.2801 44.3299 39.8106 44.7315 39.2732 44.6897C38.7359 44.6478 38.3342 44.1782 38.3761 43.6409C38.4482 42.7158 38.9878 40.6095 40.6414 39.0937C41.0387 38.7295 41.6561 38.7563 42.0203 39.1536ZM25.7895 12.5669C26.2848 12.3543 26.8586 12.5835 27.0712 13.0788L28.5407 16.5025C28.7533 16.9977 28.5242 17.5716 28.0289 17.7842C27.5336 17.9968 26.9598 17.7676 26.7472 17.2723L25.2776 13.8486C25.065 13.3533 25.2942 12.7795 25.7895 12.5669ZM40.7338 13.8486C40.9464 13.3533 40.7172 12.7795 40.2219 12.5669C39.7266 12.3543 39.1528 12.5835 38.9402 13.0788L37.4707 16.5025C37.2581 16.9977 37.4873 17.5716 37.9826 17.7842C38.4778 17.9968 39.0517 17.7676 39.2643 17.2723L40.7338 13.8486Z" fill="black"/>
</svg>
