<svg width="64" height="64" viewBox="0 0 64 64" fill="none" xmlns="http://www.w3.org/2000/svg">
<path d="M16.9781 42.9964L13 33.3229C14.3837 32.101 15.6521 32.8138 16.1133 33.3229L19.1137 37.6127C19.4154 38.0442 20.0922 37.7578 19.9927 37.2408L17.6699 25.1769C17.151 22.9706 20.2643 21.9524 21.1291 23.9889L23.8965 34.8503V22.9706C24.0694 20.5947 27.5287 20.7644 27.5287 23.1403V34.8503L30.1231 25.0071C30.8149 22.9706 33.9282 23.9889 33.4093 26.1951L30.9879 35.6988L34.62 29.0801C35.6578 27.7225 38.0792 28.9104 37.2144 30.7772L32.8904 44.3518C32.6137 45.5738 31.6797 46.9555 30.9879 47.5786V52.5002H19.9184V47.5786C18.3964 46.6282 17.324 44.1278 16.9781 42.9964Z" fill="#148DEA"/>
<path fill-rule="evenodd" clip-rule="evenodd" d="M16.1133 33.3229C15.8739 33.0587 15.4171 32.7396 14.8397 32.6645C14.7743 32.656 14.7073 32.6507 14.639 32.6489C14.1479 32.6359 13.5842 32.8069 13 33.3229L16.9781 42.9964C17.324 44.1278 18.3964 46.6282 19.9184 47.5786V52.5002H30.9879V47.5786C31.6797 46.9555 32.6137 45.5738 32.8904 44.3518L37.2144 30.7772C38.053 28.967 35.8015 27.7951 34.7181 28.9636C34.6842 29.0002 34.6515 29.039 34.62 29.0801L30.9879 35.6988L33.4093 26.1951C33.9282 23.9889 30.8149 22.9706 30.1231 25.0071L27.5287 34.8503V23.1403C27.5287 20.7644 24.0694 20.5947 23.8965 22.9706V34.8503L21.1291 23.9889C20.2643 21.9524 17.151 22.9706 17.6699 25.1769L19.9927 37.2408C20.0922 37.7578 19.4154 38.0442 19.1137 37.6127L16.1133 33.3229ZM20.3997 29.0311L21.9093 36.8718C22.407 39.4568 19.0231 40.8886 17.5142 38.7314L17.0782 38.1079L18.8179 42.3384L18.8446 42.4257C18.9802 42.8692 19.2809 43.644 19.7054 44.3932C20.1547 45.1863 20.6068 45.7073 20.9522 45.923L21.8702 46.4962V50.5483H29.036V46.7096L29.6817 46.1282C29.8536 45.9734 30.147 45.6307 30.4326 45.1667C30.7173 44.7042 30.9109 44.2557 30.9868 43.9207L31.0053 43.8391L34.1296 34.0308L32.6989 36.6378L29.4171 35.3434L29.416 35.3477L25.7103 34.8676L22.0051 35.3322L20.3997 29.0311Z" fill="#148DEA"/>
<path fill-rule="evenodd" clip-rule="evenodd" d="M33.9816 12.0001C33.9816 11.4611 33.5447 11.0242 33.0057 11.0242C32.4667 11.0242 32.0298 11.4611 32.0298 12.0001V16.0364C32.0298 16.5754 32.4667 17.0123 33.0057 17.0123C33.5447 17.0123 33.9816 16.5754 33.9816 16.0364V12.0001ZM39.0321 21.2744C37.7653 21.335 36.4608 22.284 36.4608 23.9993V27.1266C36.4608 27.6655 36.8977 28.1025 37.4367 28.1025C37.9756 28.1025 38.4126 27.6655 38.4126 27.1266V23.9993C38.4126 23.697 38.5148 23.528 38.6206 23.4267C38.7404 23.3121 38.9204 23.2338 39.1254 23.224C39.3305 23.2142 39.5094 23.2751 39.6294 23.3719C39.7301 23.453 39.8394 23.5977 39.8666 23.8806V34.9774L41.7882 35.2184L44.3618 25.1193C44.4607 24.9198 44.5883 24.8284 44.7061 24.783C44.8519 24.7268 45.042 24.7204 45.2353 24.7853C45.4281 24.85 45.5788 24.9705 45.6648 25.1088C45.7408 25.2311 45.7943 25.4097 45.7326 25.6786L42.9081 36.8774C42.4288 38.7778 44.9504 39.917 46.0596 38.3012L48.8993 34.1648C49.0065 34.0636 49.2025 33.9376 49.4327 33.9001C49.5384 33.8829 49.6766 33.8795 49.8456 33.9325L46.4273 42.2431L46.4099 42.2853L46.3966 42.329C46.2531 42.7982 45.9475 43.5828 45.5158 44.3448C45.0716 45.1286 44.5617 45.7666 44.0559 46.0823L43.5968 46.3689V46.9102V50.5483H35.1689V46.9102C35.1689 46.3712 34.732 45.9343 34.193 45.9343C33.654 45.9343 33.2171 46.3712 33.2171 46.9102V51.5242V52.5001H34.193H44.5727H45.5486V51.5242V47.4056C46.2492 46.8268 46.8033 46.0316 47.2139 45.307C47.71 44.4315 48.0641 43.5372 48.2491 42.9448L51.9625 33.9167L52.2269 33.2739L51.7059 32.8139C50.8519 32.0599 49.9396 31.8402 49.1193 31.9737C48.3505 32.0987 47.755 32.5177 47.4175 32.8902L47.3734 32.9389L47.3362 32.9931L45.0671 36.2984L47.6273 26.1472L47.6293 26.1396L47.631 26.132C48.0087 24.5268 47.0218 23.3261 45.8563 22.9349C44.6969 22.5458 43.1804 22.9036 42.5392 24.4133L42.5101 24.4818L42.4917 24.5538L41.8184 27.1961V23.8402V23.8047L41.8158 23.7694C41.7568 22.9588 41.404 22.2954 40.8544 21.8524C40.3207 21.4221 39.6582 21.2444 39.0321 21.2744ZM42.0203 39.1539C42.3845 39.5512 42.3576 40.1685 41.9603 40.5327C40.7749 41.6193 40.3682 43.1998 40.322 43.7928C40.2801 44.3301 39.8106 44.7318 39.2732 44.6899C38.7359 44.648 38.3342 44.1785 38.3761 43.6411C38.4482 42.7161 38.9878 40.6097 40.6414 39.0939C41.0387 38.7297 41.6561 38.7566 42.0203 39.1539ZM25.7895 12.5671C26.2848 12.3546 26.8586 12.5837 27.0712 13.079L28.5407 16.5027C28.7533 16.998 28.5242 17.5718 28.0289 17.7844C27.5336 17.997 26.9598 17.7678 26.7472 17.2726L25.2776 13.8488C25.065 13.3536 25.2942 12.7797 25.7895 12.5671ZM40.7338 13.8488C40.9464 13.3536 40.7172 12.7797 40.2219 12.5671C39.7266 12.3546 39.1528 12.5837 38.9402 13.079L37.4707 16.5027C37.2581 16.998 37.4873 17.5718 37.9826 17.7844C38.4778 17.997 39.0517 17.7678 39.2643 17.2725L40.7338 13.8488Z" fill="white"/>
</svg>
